# xmcd
#
# Track frame offsets:
#	150
#	17280
#	33095
#	54397
#	69850
#	85882
#	102590
#	119267
#	138195
#	158787
#	175560
#	193270
#	212490
#	229400
#	247472
#	266707
#	283562
#	304022
#
# Disc length: 4289 seconds
#
# Revision: 0
# Processed by: cddbd v1.5.2PL0 Copyright (c) Steve Scherf et al.
# Submitted via: audiograbber 1.83.01
#
DISCID=f510bf12
DTITLE=Various Artist - The Best Of Rap and R'n'B
DYEAR=1997
DGENRE=R&B
TTITLE0=Flip Da Scrip - Throw Ya Hands In The Air '97
TTITLE1=Lisa Moorish - Mr Friday Night
TTITLE2=Ralph Tresvant - Sensitivity
TTITLE3=Black Groove - Jumping Upside Down
TTITLE4=Sons Of Rhythm - Never Knew
TTITLE5=Father MC - Everything's Gonna Be Alright
TTITLE6=Old School Junkies - Pick Up The Pieces
TTITLE7=Vybe - Take It To The Front
TTITLE8=Silk - Freak Me
TTITLE9=Beat System - Fresh
TTITLE10=Renegade Funktrain - I Wonder
TTITLE11=Brandy - I Wanna Be Down (Human Hip Hop Remix)
TTITLE12=Down Low - Vision Of Life
TTITLE13=Horace Brown - One For The Money
TTITLE14=Tone Loc - I Got It Goin' On (Remix)
TTITLE15=E.Y.C. - In The Beginning
TTITLE16=U.N.V. - So In Love With You
TTITLE17=Bobby Brown - Freestyle Megamix
EXTD=
EXTT0=
EXTT1=
EXTT2=
EXTT3=
EXTT4=
EXTT5=
EXTT6=
EXTT7=
EXTT8=
EXTT9=
EXTT10=
EXTT11=
EXTT12=
EXTT13=
EXTT14=
EXTT15=
EXTT16=
EXTT17=
PLAYORDER=
